This cerebral Austrian mystery, by avant-garde director Michael Haneke, will disturb those viewers with the 

patience to wade through it. The film begins with a grisly mass killing. It was Christmas eve 1993 and a 19-year old 

student inexplicably murders several people and then kills himself. The fragmented film flashes back to October 12 

and then progresses toward the fateful night. Throughout the film many characters appear and suddenly 

reappear. A homeless teenaged Romanian exile roaming Vienna's streets and begging provides continuity. Each 

fragment begins with a newscast that functions as a surreal Greek Chorus One shows footage of the war in 

Sarajevo, and the other is a story about Michael Jackson. 

   General
      Complete name : 71 Fragmente einer Chronologie des Zufalls.avi
      Format : AVI
      Format/Info : Audio Video Interleave
      File size : 1.29 GiB
      Duration : 1h 35mn
      Overall bit rate : 1 937 Kbps
      Writing application : FairUse Wizard - http://fairusewizard.com
      Writing library : The best and REALLY easy backup tool
   Video #0
      ID : 0
      Format : MPEG-4 Visual
      Format profile : AdvancedSimple@L5
      Format settings, BVOP : Yes
      Format settings, QPel : No
      Format settings, GMC : No warppoints
      Format settings, Matrix : Default (MPEG)
      Muxing mode : Packed bitstream
      Codec ID : XVID
      Codec ID/Hint : XviD
      Duration : 1h 35mn
      Bit rate : 1 736 Kbps
      Width : 688 pixels
      Height : 384 pixels
      Display aspect ratio : 16:9
      Frame rate : 25.000 fps
      Resolution : 24 bits
      Colorimetry : 4:2:0
      Scan type : Progressive
      Bits/(Pixel*Frame) : 0.263
      Stream size : 1.15 GiB (90%)
      Writing library : XviD 1.2.0.dev47 (UTC 2006-11-01)
   Audio #1
      ID : 1
      Format : AC-3
      Format/Info : Audio Coding 3
      Codec ID : 2000
      Duration : 1h 35mn
      Bit rate mode : Constant
      Bit rate : 192 Kbps
      Channel(s) : 2 channels
      Channel positions : L R
      Sampling rate : 48.0 KHz
      Stream size : 131 MiB (10%)
      Alignment : Split accross interleaves
      Interleave, duration : 40 ms (1.00 video frame)
      Interleave, preload duration : 500 ms
 
http://www.imdb.com/title/tt0109020/

German audio; English, French, Italian, Spanish and Portuguese subtitles

My rip

Michael Haneke - 71 Fragmente einer Chronologie des Zufalls (1994)